<mxfile host="65bd71144e">
    <diagram id="1FBdTYcbO0OM_0W2Bze0" name="Page-1">
        <mxGraphModel dx="2497" dy="938" grid="1" gridSize="10" guides="1" tooltips="1" connect="1" arrows="1" fold="1" page="1" pageScale="1" pageWidth="827" pageHeight="1169" math="0" shadow="0" adaptiveColors="none">
            <root>
                <mxCell id="0"/>
                <mxCell id="1" parent="0"/>
                <mxCell id="6" value="" style="rounded=0;whiteSpace=wrap;html=1;" parent="1" vertex="1">
                    <mxGeometry x="-90" y="30" width="1430" height="870" as="geometry"/>
                </mxCell>
                <mxCell id="84" value="&lt;div style=&quot;language:fr;margin-top:0pt;margin-bottom:0pt;margin-left:&lt;br/&gt;.38in;text-indent:-.38in&quot; class=&quot;O0&quot;&gt;&lt;font style=&quot;font-size: 16px;&quot;&gt;&amp;nbsp; &amp;nbsp; &amp;nbsp; &amp;nbsp; &amp;nbsp; &amp;nbsp; &amp;nbsp;&lt;span style=&quot;font-family: &amp;quot;Times New Roman&amp;quot;;&quot;&gt;DIRECTEUR&amp;nbsp; &amp;nbsp; &amp;nbsp; GENERAL ADJOINT&lt;/span&gt;&lt;/font&gt;&lt;/div&gt;" style="rounded=0;whiteSpace=wrap;html=1;" vertex="1" parent="1">
                    <mxGeometry x="160" y="310" width="160" height="70" as="geometry"/>
                </mxCell>
                <mxCell id="98" value="" style="endArrow=none;html=1;entryX=0.5;entryY=1;entryDx=0;entryDy=0;" edge="1" parent="1" target="118">
                    <mxGeometry width="50" height="50" relative="1" as="geometry">
                        <mxPoint x="680" y="320" as="sourcePoint"/>
                        <mxPoint x="670" y="180" as="targetPoint"/>
                    </mxGeometry>
                </mxCell>
                <mxCell id="99" value="" style="endArrow=none;html=1;exitX=0.5;exitY=0;exitDx=0;exitDy=0;entryX=0;entryY=0.5;entryDx=0;entryDy=0;entryPerimeter=0;" edge="1" parent="1" source="84" target="128">
                    <mxGeometry width="50" height="50" relative="1" as="geometry">
                        <mxPoint x="230" y="285" as="sourcePoint"/>
                        <mxPoint x="430" y="270" as="targetPoint"/>
                    </mxGeometry>
                </mxCell>
                <mxCell id="100" value="" style="endArrow=none;html=1;exitX=0.997;exitY=0.424;exitDx=0;exitDy=0;exitPerimeter=0;" edge="1" parent="1">
                    <mxGeometry width="50" height="50" relative="1" as="geometry">
                        <mxPoint x="1240.7100000000005" y="420.00000000000006" as="sourcePoint"/>
                        <mxPoint x="950" y="420" as="targetPoint"/>
                    </mxGeometry>
                </mxCell>
                <mxCell id="102" value="" style="endArrow=none;html=1;entryX=0.5;entryY=1;entryDx=0;entryDy=0;exitX=0.559;exitY=0.04;exitDx=0;exitDy=0;exitPerimeter=0;" edge="1" parent="1" source="111" target="84">
                    <mxGeometry width="50" height="50" relative="1" as="geometry">
                        <mxPoint x="240" y="460" as="sourcePoint"/>
                        <mxPoint x="290" y="410" as="targetPoint"/>
                    </mxGeometry>
                </mxCell>
                <mxCell id="103" value="" style="endArrow=none;html=1;entryX=0;entryY=0.5;entryDx=0;entryDy=0;" edge="1" parent="1">
                    <mxGeometry width="50" height="50" relative="1" as="geometry">
                        <mxPoint x="100" y="504.82000000000005" as="sourcePoint"/>
                        <mxPoint x="150" y="504.82000000000005" as="targetPoint"/>
                        <Array as="points">
                            <mxPoint x="120" y="504.41"/>
                        </Array>
                    </mxGeometry>
                </mxCell>
                <mxCell id="104" value="" style="endArrow=none;html=1;entryX=0.5;entryY=1;entryDx=0;entryDy=0;" edge="1" parent="1">
                    <mxGeometry width="50" height="50" relative="1" as="geometry">
                        <mxPoint x="240" y="600" as="sourcePoint"/>
                        <mxPoint x="240" y="520" as="targetPoint"/>
                    </mxGeometry>
                </mxCell>
                <mxCell id="106" value="" style="endArrow=none;html=1;entryX=0.5;entryY=1;entryDx=0;entryDy=0;" edge="1" parent="1" target="122">
                    <mxGeometry width="50" height="50" relative="1" as="geometry">
                        <mxPoint x="680" y="470" as="sourcePoint"/>
                        <mxPoint x="800" y="460" as="targetPoint"/>
                    </mxGeometry>
                </mxCell>
                <mxCell id="107" value="" style="endArrow=none;html=1;exitX=0.5;exitY=1;exitDx=0;exitDy=0;entryX=0.5;entryY=0;entryDx=0;entryDy=0;" edge="1" parent="1" source="121" target="120">
                    <mxGeometry width="50" height="50" relative="1" as="geometry">
                        <mxPoint x="580" y="600" as="sourcePoint"/>
                        <mxPoint x="630" y="550" as="targetPoint"/>
                    </mxGeometry>
                </mxCell>
                <mxCell id="108" value="" style="endArrow=none;html=1;entryX=0;entryY=0.5;entryDx=0;entryDy=0;exitX=1;exitY=0.5;exitDx=0;exitDy=0;" edge="1" parent="1" source="111" target="112">
                    <mxGeometry width="50" height="50" relative="1" as="geometry">
                        <mxPoint x="310" y="502.5" as="sourcePoint"/>
                        <mxPoint x="370" y="507.5" as="targetPoint"/>
                    </mxGeometry>
                </mxCell>
                <mxCell id="109" value="" style="endArrow=none;html=1;entryX=0;entryY=0.5;entryDx=0;entryDy=0;" edge="1" parent="1">
                    <mxGeometry width="50" height="50" relative="1" as="geometry">
                        <mxPoint x="1241" y="420" as="sourcePoint"/>
                        <mxPoint x="1240.5" y="470" as="targetPoint"/>
                    </mxGeometry>
                </mxCell>
                <mxCell id="110" value="&lt;div style=&quot;language:fr;margin-top:0pt;margin-bottom:0pt;margin-left:&lt;br/&gt;.38in;text-indent:-.38in&quot; class=&quot;O0&quot;&gt;&lt;br&gt;&lt;/div&gt;&lt;div style=&quot;language:fr;margin-top:0pt;margin-bottom:0pt;margin-left:&lt;br/&gt;.38in;text-indent:-.38in&quot; class=&quot;O0&quot;&gt;&lt;div style=&quot;margin-top: 0pt; margin-bottom: 0pt; text-indent: -0.38in;&quot; class=&quot;O0&quot;&gt;&lt;font size=&quot;3&quot;&gt;&lt;span style=&quot;color: black;&quot;&gt;&amp;nbsp; &amp;nbsp; &amp;nbsp; &amp;nbsp;&amp;nbsp;&lt;/span&gt;&lt;span style=&quot;font-family: &amp;quot;Times New Roman&amp;quot;; color: black;&quot;&gt;RESPONSABLE&lt;br&gt;RH&lt;/span&gt;&lt;/font&gt;&lt;/div&gt;&lt;/div&gt;" style="rounded=0;whiteSpace=wrap;html=1;" vertex="1" parent="1">
                    <mxGeometry x="-60" y="470" width="160" height="70" as="geometry"/>
                </mxCell>
                <mxCell id="111" value="&lt;div style=&quot;language:fr;margin-top:0pt;margin-bottom:0pt;margin-left:&lt;br/&gt;.38in;text-indent:-.38in&quot; class=&quot;O0&quot;&gt;&lt;span style=&quot;background-color: transparent; font-family: &amp;quot;Times New Roman&amp;quot;; text-indent: -0.38in; font-size: medium;&quot;&gt;&amp;nbsp; &amp;nbsp; &amp;nbsp;DIRECTEUR&lt;/span&gt;&lt;/div&gt;&lt;div style=&quot;language:fr;margin-top:0pt;margin-bottom:0pt;margin-left:&lt;br/&gt;.38in;text-indent:-.38in&quot; class=&quot;O0&quot;&gt;&lt;div style=&quot;margin-top: 0pt; margin-bottom: 0pt; text-indent: -0.38in;&quot; class=&quot;O0&quot;&gt;&lt;font size=&quot;3&quot; style=&quot;&quot;&gt;&lt;span style=&quot;color: black; font-family: &amp;quot;Times New Roman&amp;quot;; text-indent: -0.38in; background-color: transparent;&quot;&gt;&amp;nbsp; &amp;nbsp; &amp;nbsp; D&#39;EXPLOITATION&lt;/span&gt;&lt;/font&gt;&lt;/div&gt;&lt;/div&gt;" style="rounded=0;whiteSpace=wrap;html=1;" vertex="1" parent="1">
                    <mxGeometry x="150" y="470" width="160" height="70" as="geometry"/>
                </mxCell>
                <mxCell id="112" value="&lt;div style=&quot;language:fr;margin-top:0pt;margin-bottom:0pt;margin-left:&lt;br/&gt;.38in;text-indent:-.38in&quot; class=&quot;O0&quot;&gt;&lt;div style=&quot;language:fr;margin-top:0pt;margin-bottom:0pt;margin-left:&lt;br/&gt;.38in;text-indent:-.38in&quot; class=&quot;O0&quot;&gt;&lt;font style=&quot;font-size: 16px;&quot;&gt;&lt;span style=&quot;font-family:&amp;quot;Times New Roman&amp;quot;;mso-ascii-font-family:&amp;quot;Times New Roman&amp;quot;;&lt;br/&gt;mso-fareast-font-family:+mn-ea;mso-bidi-font-family:&amp;quot;Times New Roman&amp;quot;;&lt;br/&gt;mso-fareast-theme-font:minor-fareast;color:black;language:fr;mso-style-textfill-type:&lt;br/&gt;solid;mso-style-textfill-fill-color:black;mso-style-textfill-fill-alpha:100.0%&quot;&gt;RESPONSABLE&lt;/span&gt;&lt;/font&gt;&lt;/div&gt;&lt;div style=&quot;language:fr;margin-top:0pt;margin-bottom:0pt;margin-left:&lt;br/&gt;.38in;text-indent:-.38in&quot; class=&quot;O0&quot;&gt;&lt;font style=&quot;font-size: 16px;&quot;&gt;&lt;span style=&quot;font-family:&amp;quot;Times New Roman&amp;quot;;mso-ascii-font-family:&amp;quot;Times New Roman&amp;quot;;&lt;br/&gt;mso-fareast-font-family:+mn-ea;mso-bidi-font-family:&amp;quot;Times New Roman&amp;quot;;&lt;br/&gt;mso-fareast-theme-font:minor-fareast;color:black;language:fr;mso-style-textfill-type:&lt;br/&gt;solid;mso-style-textfill-fill-color:black;mso-style-textfill-fill-alpha:100.0%&quot;&gt;COMMERCIALE MARKETING&lt;/span&gt;&lt;/font&gt;&lt;/div&gt;&lt;/div&gt;" style="rounded=0;whiteSpace=wrap;html=1;" vertex="1" parent="1">
                    <mxGeometry x="370" y="470" width="160" height="70" as="geometry"/>
                </mxCell>
                <mxCell id="113" value="&lt;div style=&quot;language:fr;margin-top:0pt;margin-bottom:0pt;margin-left:&lt;br/&gt;.38in;text-indent:-.38in&quot; class=&quot;O0&quot;&gt;&lt;div style=&quot;language:fr;margin-top:0pt;margin-bottom:0pt;margin-left:&lt;br/&gt;.38in;text-indent:-.38in&quot; class=&quot;O0&quot;&gt;&lt;font style=&quot;font-size: 16px;&quot;&gt;&lt;span style=&quot;font-family: &amp;quot;Times New Roman&amp;quot;; color: black;&quot;&gt;&amp;nbsp; &amp;nbsp; &amp;nbsp; &amp;nbsp; CASSIERE&lt;/span&gt;&lt;/font&gt;&lt;/div&gt;&lt;/div&gt;" style="rounded=0;whiteSpace=wrap;html=1;" vertex="1" parent="1">
                    <mxGeometry x="160" y="600" width="160" height="70" as="geometry"/>
                </mxCell>
                <mxCell id="118" value="&lt;div style=&quot;language:fr;margin-top:0pt;margin-bottom:0pt;margin-left:&lt;br/&gt;.38in;text-indent:-.38in&quot; class=&quot;O0&quot;&gt;&lt;div style=&quot;language:fr;margin-top:0pt;margin-bottom:0pt;margin-left:&lt;br/&gt;.38in;text-indent:-.38in&quot; class=&quot;O0&quot;&gt;&lt;div style=&quot;language:fr;margin-top:0pt;margin-bottom:0pt;margin-left:&lt;br/&gt;.38in;text-indent:-.38in&quot; class=&quot;O0&quot;&gt;&lt;font style=&quot;font-size: 16px;&quot;&gt;&amp;nbsp; &amp;nbsp; &amp;nbsp; &amp;nbsp;&amp;nbsp;&lt;span style=&quot;font-family: &amp;quot;Times New Roman&amp;quot;;&quot;&gt;DIRECTEUR GENERALE&lt;/span&gt;&lt;/font&gt;&lt;/div&gt;&lt;/div&gt;&lt;/div&gt;" style="rounded=0;whiteSpace=wrap;html=1;" vertex="1" parent="1">
                    <mxGeometry x="600" y="140" width="160" height="70" as="geometry"/>
                </mxCell>
                <mxCell id="119" value="&lt;div style=&quot;language:fr;margin-top:0pt;margin-bottom:0pt;margin-left:&lt;br/&gt;.38in;text-indent:-.38in&quot; class=&quot;O0&quot;&gt;&lt;div style=&quot;language:fr;margin-top:0pt;margin-bottom:0pt;margin-left:&lt;br/&gt;.38in;text-indent:-.38in&quot; class=&quot;O0&quot;&gt;&lt;div style=&quot;language:fr;margin-top:0pt;margin-bottom:0pt;margin-left:&lt;br/&gt;.38in;text-indent:-.38in&quot; class=&quot;O0&quot;&gt;&lt;font style=&quot;font-size: 16px;&quot;&gt;&lt;span style=&quot;color: black;&quot;&gt;&amp;nbsp; &amp;nbsp; &amp;nbsp;&amp;nbsp;&lt;/span&gt;&lt;span style=&quot;font-family: &amp;quot;Times New Roman&amp;quot;; color: black;&quot;&gt;ASSISTANTE&lt;br&gt;DE DIRECTION&lt;/span&gt;&lt;/font&gt;&lt;/div&gt;&lt;/div&gt;&lt;/div&gt;" style="rounded=0;whiteSpace=wrap;html=1;" vertex="1" parent="1">
                    <mxGeometry x="1030" y="320" width="160" height="70" as="geometry"/>
                </mxCell>
                <mxCell id="120" value="&lt;div style=&quot;language:fr;margin-top:0pt;margin-bottom:0pt;margin-left:&lt;br/&gt;.38in;text-indent:-.38in&quot; class=&quot;O0&quot;&gt;&lt;div style=&quot;language:fr;margin-top:0pt;margin-bottom:0pt;margin-left:&lt;br/&gt;.38in;text-indent:-.38in&quot; class=&quot;O0&quot;&gt;&lt;div style=&quot;language:fr;margin-top:0pt;margin-bottom:0pt;margin-left:&lt;br/&gt;.38in;text-indent:-.38in&quot; class=&quot;O0&quot;&gt;&lt;font style=&quot;font-size: 16px;&quot;&gt;&lt;span style=&quot;color: black;&quot;&gt;&amp;nbsp; &amp;nbsp; &amp;nbsp;&amp;nbsp;&lt;/span&gt;&lt;span style=&quot;font-family: &amp;quot;Times New Roman&amp;quot;; color: black;&quot;&gt;COMPTABLE&lt;/span&gt;&lt;/font&gt;&lt;/div&gt;&lt;/div&gt;&lt;/div&gt;" style="rounded=0;whiteSpace=wrap;html=1;" vertex="1" parent="1">
                    <mxGeometry x="600" y="600" width="160" height="70" as="geometry"/>
                </mxCell>
                <mxCell id="121" value="&lt;div style=&quot;language:fr;margin-top:0pt;margin-bottom:0pt;margin-left:&lt;br/&gt;.38in;text-indent:-.38in&quot; class=&quot;O0&quot;&gt;&lt;div style=&quot;language:fr;margin-top:0pt;margin-bottom:0pt;margin-left:&lt;br/&gt;.38in;text-indent:-.38in&quot; class=&quot;O0&quot;&gt;&lt;div style=&quot;language:fr;margin-top:0pt;margin-bottom:0pt;margin-left:&lt;br/&gt;.38in;text-indent:-.38in&quot; class=&quot;O0&quot;&gt;&lt;font style=&quot;font-size: 16px;&quot;&gt;&lt;span style=&quot;color: black;&quot;&gt;&amp;nbsp; &amp;nbsp;&lt;/span&gt;&lt;span style=&quot;font-family: &amp;quot;Times New Roman&amp;quot;; color: black;&quot;&gt;CHEF&lt;br&gt;SERVICE FINANCIER&lt;/span&gt;&lt;/font&gt;&lt;/div&gt;&lt;/div&gt;&lt;/div&gt;" style="rounded=0;whiteSpace=wrap;html=1;" vertex="1" parent="1">
                    <mxGeometry x="600" y="470" width="160" height="70" as="geometry"/>
                </mxCell>
                <mxCell id="122" value="&lt;div style=&quot;language:fr;margin-top:0pt;margin-bottom:0pt;margin-left:&lt;br/&gt;.38in;text-indent:-.38in&quot; class=&quot;O0&quot;&gt;&lt;div style=&quot;language:fr;margin-top:0pt;margin-bottom:0pt;margin-left:&lt;br/&gt;.38in;text-indent:-.38in&quot; class=&quot;O0&quot;&gt;&lt;font style=&quot;font-size: 16px;&quot;&gt;&lt;font style=&quot;&quot;&gt;&lt;span style=&quot;font-family: &amp;quot;Times New Roman&amp;quot;; color: black;&quot;&gt;&amp;nbsp; &amp;nbsp; &amp;nbsp; &amp;nbsp;&amp;nbsp;&lt;/span&gt;&lt;/font&gt;&lt;span style=&quot;text-indent: -0.38in; background-color: transparent; font-family: &amp;quot;Times New Roman&amp;quot;; color: black;&quot;&gt;CONSULTANT&lt;br/&gt;COMMUNICATION&lt;/span&gt;&lt;/font&gt;&lt;/div&gt;&lt;/div&gt;" style="rounded=0;whiteSpace=wrap;html=1;" vertex="1" parent="1">
                    <mxGeometry x="600" y="320" width="160" height="70" as="geometry"/>
                </mxCell>
                <mxCell id="125" value="&lt;div style=&quot;language:fr;margin-top:0pt;margin-bottom:0pt;margin-left:&lt;br/&gt;.38in;text-indent:-.38in&quot; class=&quot;O0&quot;&gt;&lt;br&gt;&lt;/div&gt;&lt;div style=&quot;language:fr;margin-top:0pt;margin-bottom:0pt;margin-left:&lt;br/&gt;.38in;text-indent:-.38in&quot; class=&quot;O0&quot;&gt;&lt;div style=&quot;margin-top: 0pt; margin-bottom: 0pt; text-indent: -0.38in;&quot; class=&quot;O0&quot;&gt;&lt;font size=&quot;3&quot;&gt;&lt;span style=&quot;color: black;&quot;&gt;&amp;nbsp; &amp;nbsp; &amp;nbsp; &amp;nbsp;&amp;nbsp;&lt;/span&gt;&lt;span style=&quot;font-family: &amp;quot;Times New Roman&amp;quot;; color: black;&quot;&gt;RESPONSABLE&lt;br&gt;REGION&lt;/span&gt;&lt;/font&gt;&lt;/div&gt;&lt;font size=&quot;3&quot;&gt;&lt;br style=&quot;color: rgb(63, 63, 63); text-indent: 0px;&quot;&gt;&lt;/font&gt;&lt;/div&gt;" style="rounded=0;whiteSpace=wrap;html=1;" vertex="1" parent="1">
                    <mxGeometry x="870" y="470" width="160" height="70" as="geometry"/>
                </mxCell>
                <mxCell id="129" value="" style="endArrow=none;html=1;" edge="1" parent="1" source="122">
                    <mxGeometry width="50" height="50" relative="1" as="geometry">
                        <mxPoint x="680" y="320" as="sourcePoint"/>
                        <mxPoint x="680" y="260" as="targetPoint"/>
                    </mxGeometry>
                </mxCell>
                <mxCell id="128" value="" style="line;strokeWidth=1;html=1;" vertex="1" parent="1">
                    <mxGeometry x="240" y="250" width="870" height="10" as="geometry"/>
                </mxCell>
                <mxCell id="133" value="&lt;div style=&quot;language:fr;margin-top:0pt;margin-bottom:0pt;margin-left:&lt;br/&gt;.38in;text-indent:-.38in&quot; class=&quot;O0&quot;&gt;&lt;font style=&quot;font-size: 16px;&quot;&gt;&lt;br style=&quot;text-indent: 0px;&quot;&gt;&lt;br style=&quot;text-indent: 0px;&quot;&gt;&lt;br style=&quot;text-indent: 0px;&quot;&gt;&lt;/font&gt;&lt;div style=&quot;margin-top: 0pt; margin-bottom: 0pt; text-indent: -0.38in;&quot; class=&quot;O0&quot;&gt;&lt;font size=&quot;3&quot;&gt;&lt;span style=&quot;color: black;&quot;&gt;&amp;nbsp; &amp;nbsp; &amp;nbsp;&amp;nbsp;&lt;/span&gt;&lt;span style=&quot;font-family: &amp;quot;Times New Roman&amp;quot;; color: black;&quot;&gt;SUPERVISEUR&lt;br&gt;DE ZONE&lt;/span&gt;&lt;/font&gt;&lt;/div&gt;&lt;font size=&quot;3&quot;&gt;&lt;br style=&quot;text-indent: 0px;&quot;&gt;&lt;br style=&quot;text-indent: 0px;&quot;&gt;&lt;br style=&quot;text-indent: 0px;&quot;&gt;&lt;/font&gt;&lt;br style=&quot;text-indent: 0px;&quot;&gt;&lt;/div&gt;" style="rounded=0;whiteSpace=wrap;html=1;" vertex="1" parent="1">
                    <mxGeometry x="1161" y="470" width="160" height="70" as="geometry"/>
                </mxCell>
                <mxCell id="134" value="" style="endArrow=none;html=1;exitX=0.5;exitY=0;exitDx=0;exitDy=0;" edge="1" parent="1" source="125">
                    <mxGeometry width="50" height="50" relative="1" as="geometry">
                        <mxPoint x="900" y="470" as="sourcePoint"/>
                        <mxPoint x="950" y="420" as="targetPoint"/>
                    </mxGeometry>
                </mxCell>
                <mxCell id="135" value="" style="endArrow=none;html=1;" edge="1" parent="1">
                    <mxGeometry width="50" height="50" relative="1" as="geometry">
                        <mxPoint x="1110" y="420" as="sourcePoint"/>
                        <mxPoint x="1110" y="390" as="targetPoint"/>
                    </mxGeometry>
                </mxCell>
                <mxCell id="136" value="" style="endArrow=none;html=1;exitX=0.5;exitY=0;exitDx=0;exitDy=0;entryX=1;entryY=0.5;entryDx=0;entryDy=0;entryPerimeter=0;" edge="1" parent="1" source="119" target="128">
                    <mxGeometry width="50" height="50" relative="1" as="geometry">
                        <mxPoint x="1110" y="320" as="sourcePoint"/>
                        <mxPoint x="1120" y="260" as="targetPoint"/>
                    </mxGeometry>
                </mxCell>
            </root>
        </mxGraphModel>
    </diagram>
</mxfile>
